<svg id="visual" viewBox="0 0 960 540" width="960" height="540" xmlns="http://www.w3.org/2000/svg" xmlns:xlink="http://www.w3.org/1999/xlink" version="1.1"><rect x="0" y="0" width="960" height="540" fill="#eee"></rect><defs><linearGradient id="grad1_0" x1="43.8%" y1="0%" x2="100%" y2="100%"><stop offset="14.444444444444446%" stop-color="#eeeeee" stop-opacity="1"></stop><stop offset="85.55555555555554%" stop-color="#eeeeee" stop-opacity="1"></stop></linearGradient></defs><defs><linearGradient id="grad2_0" x1="0%" y1="0%" x2="56.3%" y2="100%"><stop offset="14.444444444444446%" stop-color="#eeeeee" stop-opacity="1"></stop><stop offset="85.55555555555554%" stop-color="#eeeeee" stop-opacity="1"></stop></linearGradient></defs><g transform="translate(960, 0)"><path d="M0 297C-41.7 292.1 -83.4 287.3 -109.4 264.2C-135.5 241.2 -145.8 199.9 -174.7 174.7C-203.5 149.4 -250.9 140.1 -274.4 113.7C-297.9 87.2 -297.4 43.6 -297 0L0 0Z" fill="#B7B78A"></path></g><g transform="translate(0, 540)"><path d="M0 -297C37.4 -291.1 74.8 -285.2 112.9 -272.5C151 -259.9 189.9 -240.6 210 -210C230.2 -179.4 231.6 -137.5 243 -100.6C254.4 -63.8 275.7 -31.9 297 0L0 0Z" fill="#B7B78A"></path></g></svg>