<svg id="visual" viewBox="0 0 960 540" width="960" height="540" xmlns="http://www.w3.org/2000/svg" xmlns:xlink="http://www.w3.org/1999/xlink" version="1.1"><rect x="0" y="0" width="960" height="540" fill="#EEEEEE"></rect><g transform="translate(466.4333917179104 244.72426004272575)"><path d="M100.7 -171.9C132 -156.3 160 -132.4 187.6 -102.4C215.3 -72.3 242.6 -36.2 248.7 3.5C254.8 43.2 239.5 86.3 213.6 119.4C187.7 152.4 151.1 175.4 113.7 197C76.3 218.5 38.2 238.8 -2.9 243.8C-44 248.9 -88 238.8 -119.6 213.8C-151.2 188.9 -170.4 149.2 -188.4 111.1C-206.4 73 -223.2 36.5 -222.9 0.2C-222.6 -36.2 -205.3 -72.3 -182.3 -101.8C-159.3 -131.2 -130.6 -153.9 -99.3 -169.6C-68 -185.3 -34 -193.9 0.3 -194.5C34.7 -195.1 69.3 -187.6 100.7 -171.9" fill="#D8D9CF"></path></g></svg>