<svg xmlns="http://www.w3.org/2000/svg" viewBox="0 0 500 500"><g id="freepik--background-complete--inject-35"><rect y="382.4" width="500" height="0.25" style="fill:#ebebeb"></rect><rect x="416.78" y="398.49" width="33.12" height="0.25" style="fill:#ebebeb"></rect><rect x="322.53" y="401.21" width="8.69" height="0.25" style="fill:#ebebeb"></rect><rect x="396.59" y="389.21" width="19.19" height="0.25" style="fill:#ebebeb"></rect><rect x="52.46" y="390.89" width="43.19" height="0.25" style="fill:#ebebeb"></rect><rect x="104.56" y="390.89" width="6.33" height="0.25" style="fill:#ebebeb"></rect><rect x="131.47" y="395.11" width="93.68" height="0.25" style="fill:#ebebeb"></rect><path d="M237,337.8H43.91a5.71,5.71,0,0,1-5.7-5.71V60.66A5.71,5.71,0,0,1,43.91,55H237a5.71,5.71,0,0,1,5.71,5.71V332.09A5.71,5.71,0,0,1,237,337.8ZM43.91,55.2a5.46,5.46,0,0,0-5.45,5.46V332.09a5.46,5.46,0,0,0,5.45,5.46H237a5.47,5.47,0,0,0,5.46-5.46V60.66A5.47,5.47,0,0,0,237,55.2Z" style="fill:#ebebeb"></path><path d="M453.31,337.8H260.21a5.72,5.72,0,0,1-5.71-5.71V60.66A5.72,5.72,0,0,1,260.21,55h193.1A5.71,5.71,0,0,1,459,60.66V332.09A5.71,5.71,0,0,1,453.31,337.8ZM260.21,55.2a5.47,5.47,0,0,0-5.46,5.46V332.09a5.47,5.47,0,0,0,5.46,5.46h193.1a5.47,5.47,0,0,0,5.46-5.46V60.66a5.47,5.47,0,0,0-5.46-5.46Z" style="fill:#ebebeb"></path><rect x="258.1" y="123.83" width="71.37" height="204.54" transform="translate(587.58 452.2) rotate(180)" style="fill:#fafafa"></rect><rect x="256.46" y="121.06" width="74.67" height="10.04" transform="translate(587.58 252.15) rotate(180)" style="fill:#f0f0f0"></rect><rect x="256.46" y="132.2" width="74.67" height="5.02" transform="translate(587.58 269.43) rotate(180)" style="fill:#f0f0f0"></rect><rect x="256.46" y="139.65" width="74.67" height="5.02" transform="translate(587.58 284.32) rotate(180)" style="fill:#f0f0f0"></rect><rect x="256.46" y="147.1" width="74.67" height="5.02" transform="translate(587.58 299.22) rotate(180)" style="fill:#f0f0f0"></rect><rect x="256.46" y="154.55" width="74.67" height="5.02" transform="translate(587.58 314.12) rotate(180)" style="fill:#f0f0f0"></rect><rect x="256.46" y="162" width="74.67" height="5.02" transform="translate(587.58 329.01) rotate(180)" style="fill:#f0f0f0"></rect><rect x="256.46" y="169.45" width="74.67" height="5.02" transform="translate(587.58 343.91) rotate(180)" style="fill:#f0f0f0"></rect><rect x="256.46" y="176.89" width="74.67" height="5.02" transform="translate(587.58 358.81) rotate(180)" style="fill:#f0f0f0"></rect><rect x="256.46" y="184.34" width="74.67" height="5.02" transform="translate(587.58 373.7) rotate(180)" style="fill:#f0f0f0"></rect><rect x="256.46" y="191.79" width="74.67" height="5.02" transform="translate(587.58 388.6) rotate(180)" style="fill:#f0f0f0"></rect><rect x="256.46" y="199.24" width="74.67" height="5.02" transform="translate(587.58 403.49) rotate(180)" style="fill:#f0f0f0"></rect><rect x="256.46" y="206.69" width="74.67" height="5.02" transform="translate(587.58 418.39) rotate(180)" style="fill:#f0f0f0"></rect><rect x="256.46" y="214.13" width="74.67" height="5.02" transform="translate(587.58 433.29) rotate(180)" style="fill:#f0f0f0"></rect><rect x="256.46" y="221.58" width="74.67" height="5.02" transform="translate(587.58 448.18) rotate(180)" style="fill:#f0f0f0"></rect><rect x="256.46" y="229.03" width="74.67" height="5.02" transform="translate(587.58 463.08) rotate(180)" style="fill:#f0f0f0"></rect><rect x="256.46" y="236.48" width="74.67" height="5.02" transform="translate(587.58 477.98) rotate(180)" style="fill:#f0f0f0"></rect><rect x="256.46" y="243.93" width="74.67" height="5.02" transform="translate(587.58 492.87) rotate(180)" style="fill:#f0f0f0"></rect><rect x="256.46" y="251.38" width="74.67" height="5.02" transform="translate(587.58 507.77) rotate(180)" style="fill:#f0f0f0"></rect><rect x="256.46" y="258.82" width="74.67" height="5.02" transform="translate(587.58 522.67) rotate(180)" style="fill:#f0f0f0"></rect><rect x="256.46" y="266.27" width="74.67" height="5.02" transform="translate(587.58 537.56) rotate(180)" style="fill:#f0f0f0"></rect><rect x="256.46" y="273.72" width="74.67" height="5.02" transform="translate(587.58 552.46) rotate(180)" style="fill:#f0f0f0"></rect><rect x="256.46" y="281.17" width="74.67" height="5.02" transform="translate(587.58 567.36) rotate(180)" style="fill:#f0f0f0"></rect><rect x="256.46" y="288.62" width="74.67" height="5.02" transform="translate(587.58 582.25) rotate(180)" style="fill:#f0f0f0"></rect><rect x="256.46" y="296.07" width="74.67" height="5.02" transform="translate(587.58 597.15) rotate(180)" style="fill:#f0f0f0"></rect><rect x="256.46" y="303.51" width="74.67" height="5.02" transform="translate(587.58 612.05) rotate(180)" style="fill:#f0f0f0"></rect><rect x="256.46" y="310.96" width="74.67" height="5.02" transform="translate(587.58 626.94) rotate(180)" style="fill:#f0f0f0"></rect><rect x="256.46" y="318.41" width="74.67" height="5.02" transform="translate(587.58 641.84) rotate(180)" style="fill:#f0f0f0"></rect><rect x="256.46" y="325.86" width="74.67" height="5.02" transform="translate(587.58 656.73) rotate(180)" style="fill:#f0f0f0"></rect><rect x="347.31" y="123.83" width="71.37" height="204.54" transform="translate(765.99 452.2) rotate(180)" style="fill:#fafafa"></rect><rect x="345.66" y="121.06" width="74.67" height="10.04" transform="translate(765.99 252.15) rotate(180)" style="fill:#f0f0f0"></rect><rect x="345.66" y="132.2" width="74.67" height="5.02" transform="translate(765.99 269.43) rotate(180)" style="fill:#f0f0f0"></rect><rect x="345.66" y="139.65" width="74.67" height="5.02" transform="translate(765.99 284.32) rotate(180)" style="fill:#f0f0f0"></rect><rect x="345.66" y="147.1" width="74.67" height="5.02" transform="translate(765.99 299.22) rotate(180)" style="fill:#f0f0f0"></rect><rect x="345.66" y="154.55" width="74.67" height="5.02" transform="translate(765.99 314.12) rotate(180)" style="fill:#f0f0f0"></rect><rect x="345.66" y="162" width="74.67" height="5.02" transform="translate(765.99 329.01) rotate(180)" style="fill:#f0f0f0"></rect><rect x="345.66" y="169.45" width="74.67" height="5.02" transform="translate(765.99 343.91) rotate(180)" style="fill:#f0f0f0"></rect><rect x="345.66" y="176.89" width="74.67" height="5.02" transform="translate(765.99 358.81) rotate(180)" style="fill:#f0f0f0"></rect><rect x="345.66" y="184.34" width="74.67" height="5.02" transform="translate(765.99 373.7) rotate(180)" style="fill:#f0f0f0"></rect><rect x="345.66" y="191.79" width="74.67" height="5.02" transform="translate(765.99 388.6) rotate(180)" style="fill:#f0f0f0"></rect><rect x="345.66" y="199.24" width="74.67" height="5.02" transform="translate(765.99 403.49) rotate(180)" style="fill:#f0f0f0"></rect><rect x="345.66" y="206.69" width="74.67" height="5.02" transform="translate(765.99 418.39) rotate(180)" style="fill:#f0f0f0"></rect><rect x="345.66" y="214.13" width="74.67" height="5.02" transform="translate(765.99 433.29) rotate(180)" style="fill:#f0f0f0"></rect><rect x="345.66" y="221.58" width="74.67" height="5.02" transform="translate(765.99 448.18) rotate(180)" style="fill:#f0f0f0"></rect><rect x="345.66" y="229.03" width="74.67" height="5.02" transform="translate(765.99 463.08) rotate(180)" style="fill:#f0f0f0"></rect><rect x="345.66" y="236.48" width="74.67" height="5.02" transform="translate(765.99 477.98) rotate(180)" style="fill:#f0f0f0"></rect><rect x="345.66" y="243.93" width="74.67" height="5.02" transform="translate(765.99 492.87) rotate(180)" style="fill:#f0f0f0"></rect><rect x="345.66" y="251.38" width="74.67" height="5.02" transform="translate(765.99 507.77) rotate(180)" style="fill:#f0f0f0"></rect><rect x="345.66" y="258.82" width="74.67" height="5.02" transform="translate(765.99 522.67) rotate(180)" style="fill:#f0f0f0"></rect><rect x="345.66" y="266.27" width="74.67" height="5.02" transform="translate(765.99 537.56) rotate(180)" style="fill:#f0f0f0"></rect><rect x="345.66" y="273.72" width="74.67" height="5.02" transform="translate(765.99 552.46) rotate(180)" style="fill:#f0f0f0"></rect><rect x="345.66" y="281.17" width="74.67" height="5.02" transform="translate(765.99 567.36) rotate(180)" style="fill:#f0f0f0"></rect><rect x="345.66" y="288.62" width="74.67" height="5.02" transform="translate(765.99 582.25) rotate(180)" style="fill:#f0f0f0"></rect><rect x="345.66" y="296.07" width="74.67" height="5.02" transform="translate(765.99 597.15) rotate(180)" style="fill:#f0f0f0"></rect><rect x="345.66" y="303.51" width="74.67" height="5.02" transform="translate(765.99 612.05) rotate(180)" style="fill:#f0f0f0"></rect><rect x="345.66" y="310.96" width="74.67" height="5.02" transform="translate(765.99 626.94) rotate(180)" style="fill:#f0f0f0"></rect><rect x="345.66" y="318.41" width="74.67" height="5.02" transform="translate(765.99 641.84) rotate(180)" style="fill:#f0f0f0"></rect><rect x="345.66" y="325.86" width="74.67" height="5.02" transform="translate(765.99 656.73) rotate(180)" style="fill:#f0f0f0"></rect><rect x="168.9" y="125.09" width="71.37" height="204.54" transform="translate(409.17 454.71) rotate(180)" style="fill:#fafafa"></rect><rect x="167.25" y="122.31" width="74.67" height="10.04" transform="translate(409.17 254.66) rotate(180)" style="fill:#f0f0f0"></rect><rect x="167.25" y="133.46" width="74.67" height="0.92" transform="translate(409.17 267.84) rotate(180)" style="fill:#f0f0f0"></rect><rect x="167.25" y="135.55" width="74.67" height="0.92" transform="translate(409.17 272.03) rotate(180)" style="fill:#f0f0f0"></rect><rect x="167.25" y="137.65" width="74.67" height="0.92" transform="translate(409.17 276.22) rotate(180)" style="fill:#f0f0f0"></rect><rect x="167.25" y="139.75" width="74.67" height="0.92" transform="translate(409.17 280.41) rotate(180)" style="fill:#f0f0f0"></rect><rect x="167.25" y="141.84" width="74.67" height="0.92" transform="translate(409.17 284.61) rotate(180)" style="fill:#f0f0f0"></rect><rect x="167.25" y="143.94" width="74.67" height="0.92" transform="translate(409.17 288.8) rotate(180)" style="fill:#f0f0f0"></rect><rect x="167.25" y="146.03" width="74.67" height="0.92" transform="translate(409.17 292.99) rotate(180)" style="fill:#f0f0f0"></rect><rect x="167.25" y="148.13" width="74.67" height="0.92" transform="translate(409.17 297.18) rotate(180)" style="fill:#f0f0f0"></rect><rect x="167.25" y="150.22" width="74.67" height="0.92" transform="translate(409.17 301.37) rotate(180)" style="fill:#f0f0f0"></rect><rect x="167.25" y="152.32" width="74.67" height="0.92" transform="translate(409.17 305.56) rotate(180)" style="fill:#f0f0f0"></rect><rect x="167.25" y="154.41" width="74.67" height="0.92" transform="translate(409.17 309.75) rotate(180)" style="fill:#f0f0f0"></rect><rect x="167.25" y="156.51" width="74.67" height="0.92" transform="translate(409.17 313.94) rotate(180)" style="fill:#f0f0f0"></rect><rect x="167.25" y="158.61" width="74.67" height="0.92" transform="translate(409.17 318.14) rotate(180)" style="fill:#f0f0f0"></rect><rect x="167.25" y="160.7" width="74.67" height="0.92" transform="translate(409.17 322.33) rotate(180)" style="fill:#f0f0f0"></rect><rect x="167.25" y="162.8" width="74.67" height="0.92" transform="translate(409.17 326.52) rotate(180)" style="fill:#f0f0f0"></rect><rect x="167.25" y="164.89" width="74.67" height="0.92" transform="translate(409.17 330.71) rotate(180)" style="fill:#f0f0f0"></rect><rect x="167.25" y="166.99" width="74.67" height="0.92" transform="translate(409.17 334.9) rotate(180)" style="fill:#f0f0f0"></rect><rect x="167.25" y="169.08" width="74.67" height="0.92" transform="translate(409.17 339.09) rotate(180)" style="fill:#f0f0f0"></rect><rect x="79.69" y="125.09" width="71.37" height="204.54" transform="translate(230.76 454.71) rotate(180)" style="fill:#fafafa"></rect><rect x="78.05" y="122.31" width="74.67" height="10.04" transform="translate(230.76 254.66) rotate(180)" style="fill:#f0f0f0"></rect><rect x="78.05" y="133.46" width="74.67" height="0.92" transform="translate(230.76 267.84) rotate(180)" style="fill:#f0f0f0"></rect><rect x="78.05" y="135.55" width="74.67" height="0.92" transform="translate(230.76 272.03) rotate(180)" style="fill:#f0f0f0"></rect><rect x="78.05" y="137.65" width="74.67" height="0.92" transform="translate(230.76 276.22) rotate(180)" style="fill:#f0f0f0"></rect><rect x="78.05" y="139.75" width="74.67" height="0.92" transform="translate(230.76 280.41) rotate(180)" style="fill:#f0f0f0"></rect><rect x="78.05" y="141.84" width="74.67" height="0.92" transform="translate(230.76 284.61) rotate(180)" style="fill:#f0f0f0"></rect><rect x="78.05" y="143.94" width="74.67" height="0.92" transform="translate(230.76 288.8) rotate(180)" style="fill:#f0f0f0"></rect><rect x="78.05" y="146.03" width="74.67" height="0.92" transform="translate(230.76 292.99) rotate(180)" style="fill:#f0f0f0"></rect><rect x="78.05" y="148.13" width="74.67" height="0.92" transform="translate(230.76 297.18) rotate(180)" style="fill:#f0f0f0"></rect><rect x="78.05" y="150.22" width="74.67" height="0.92" transform="translate(230.76 301.37) rotate(180)" style="fill:#f0f0f0"></rect><rect x="78.05" y="152.32" width="74.67" height="0.92" transform="translate(230.76 305.56) rotate(180)" style="fill:#f0f0f0"></rect><rect x="78.05" y="154.41" width="74.67" height="0.92" transform="translate(230.76 309.75) rotate(180)" style="fill:#f0f0f0"></rect><rect x="78.05" y="156.51" width="74.67" height="0.92" transform="translate(230.76 313.94) rotate(180)" style="fill:#f0f0f0"></rect><rect x="78.05" y="158.61" width="74.67" height="0.92" transform="translate(230.76 318.14) rotate(180)" style="fill:#f0f0f0"></rect><rect x="78.05" y="160.7" width="74.67" height="0.92" transform="translate(230.76 322.33) rotate(180)" style="fill:#f0f0f0"></rect><rect x="78.05" y="162.8" width="74.67" height="0.92" transform="translate(230.76 326.52) rotate(180)" style="fill:#f0f0f0"></rect><rect x="78.05" y="164.89" width="74.67" height="0.92" transform="translate(230.76 330.71) rotate(180)" style="fill:#f0f0f0"></rect><rect x="78.05" y="166.99" width="74.67" height="0.92" transform="translate(230.76 334.9) rotate(180)" style="fill:#f0f0f0"></rect><rect x="78.05" y="169.08" width="74.67" height="0.92" transform="translate(230.76 339.09) rotate(180)" style="fill:#f0f0f0"></rect><circle cx="249.19" cy="93.34" r="15.17" transform="translate(101.1 314.41) rotate(-76.72)" style="fill:#f0f0f0"></circle><circle cx="249.19" cy="93.34" r="12.9" transform="translate(117.14 324.36) rotate(-80.78)" style="fill:#fafafa"></circle><path d="M248.58,94.5a1,1,0,0,1-.49-.12l-6-3.39a1,1,0,0,1-.38-1.36,1,1,0,0,1,1.37-.38l4.48,2.54v-7.3a1,1,0,1,1,2,0v9a1,1,0,0,1-.5.87A1,1,0,0,1,248.58,94.5Z" style="fill:#e0e0e0"></path></g><g id="freepik--Shadow--inject-35"><ellipse id="freepik--path--inject-35" cx="250" cy="416.24" rx="193.89" ry="11.32" style="fill:#f5f5f5"></ellipse></g><g id="freepik--Plant--inject-35"><path d="M264,371.35s7.76-9.23,12.72-4.93,2.45,13.43-3.27,13.73a14.38,14.38,0,0,1-9.45-2.89Z" style="fill:#439A97"></path><path d="M264,371.35s7.76-9.23,12.72-4.93,2.45,13.43-3.27,13.73a14.38,14.38,0,0,1-9.45-2.89Z" style="fill:#fff;opacity:0.2;isolation:isolate"></path><path d="M232.41,347.94s-6.51-6.82-10.54-5.66-3.62,17.45,8.89,10.85Z" style="fill:#439A97"></path><path d="M232.41,347.94s-6.51-6.82-10.54-5.66-3.62,17.45,8.89,10.85Z" style="fill:#fff;opacity:0.30000000000000004;isolation:isolate"></path><path d="M255.67,398.83s21.4-29.27,4-35.2-20.47,23.55-15.5,31.76S255.67,398.83,255.67,398.83Z" style="fill:#439A97"></path><path d="M245.75,338.9s-13.28-30.82,6.38-31.75,21.81,30.56-.82,35.13Z" style="fill:#439A97"></path><path d="M255.67,398.83s21.4-29.27,4-35.2-20.47,23.55-15.5,31.76S255.67,398.83,255.67,398.83Z" style="fill:#fff;opacity:0.30000000000000004;isolation:isolate"></path><path d="M245.75,338.9s-13.28-30.82,6.38-31.75,21.81,30.56-.82,35.13Z" style="fill:#fff;opacity:0.30000000000000004;isolation:isolate"></path><path d="M250.46,364.13s6.45-27.21-6-29.38-24.65,22.42,1,34.78C245.52,369.53,249.92,366.8,250.46,364.13Z" style="fill:#439A97"></path><path d="M250.46,364.13s6.45-27.21-6-29.38-24.65,22.42,1,34.78C245.52,369.53,249.92,366.8,250.46,364.13Z" style="fill:#fff;opacity:0.2;isolation:isolate"></path><polygon points="271.07 394.68 235.15 394.68 238.15 417.67 268.07 417.67 271.07 394.68" style="fill:#263238"></polygon><path d="M252.39,336.7c.8-.84,1.58-1.68,2.29-2.59a30.29,30.29,0,0,0,2.06-2.75,31.62,31.62,0,0,0,3.21-6,21.32,21.32,0,0,0,1.44-6.58l0-1.7c-.05-.57-.14-1.13-.2-1.7,0-.28,0-.57-.08-.85l-.21-.83c-.14-.56-.26-1.12-.39-1.7a16.48,16.48,0,0,1,1.61,6.79,18.32,18.32,0,0,1-1.28,6.93,24.73,24.73,0,0,1-3.52,6.08A25.25,25.25,0,0,1,252.39,336.7Z" style="fill:#439A97"></path><path d="M257.1,310.25a16.21,16.21,0,0,0-9.13,9l-.57,1.54c-.17.52-.26,1.06-.4,1.59a27.06,27.06,0,0,0-.56,3.26c-.11,1.1-.11,2.21-.16,3.33s.09,2.23.09,3.37c-.23-1.11-.39-2.22-.58-3.34s-.13-2.27-.12-3.41a20,20,0,0,1,1.38-6.72,15.26,15.26,0,0,1,4-5.59,14.71,14.71,0,0,1,2.84-1.94A12.52,12.52,0,0,1,257.1,310.25Z" style="fill:#439A97"></path><path d="M242.06,336.7a11.61,11.61,0,0,0-3.51,2.78,12.34,12.34,0,0,0-2.3,3.78,15,15,0,0,0-1,4.29,6.67,6.67,0,0,0,0,1.09c0,.36,0,.73,0,1.09a12.08,12.08,0,0,0,.46,2.13,24.83,24.83,0,0,0,4.22,7.81,43.33,43.33,0,0,0,2.89,3.48c1,1.14,2.06,2.21,3.16,3.27a38,38,0,0,1-6.65-6.27,29.48,29.48,0,0,1-2.7-3.75,19.57,19.57,0,0,1-1.88-4.26,13.91,13.91,0,0,1-.47-2.31,9.62,9.62,0,0,1,0-1.2,6.67,6.67,0,0,1,.06-1.18,14.6,14.6,0,0,1,1.22-4.49A11.7,11.7,0,0,1,242.06,336.7Z" style="fill:#439A97"></path><path d="M245.75,338.9c-.17,1.05-.33,2.09-.42,3.14a29.89,29.89,0,0,0-.2,3.13,19.6,19.6,0,0,0,.2,3.08,6.88,6.88,0,0,0,.93,2.79,11,11,0,0,1,.79,1.45,10,10,0,0,1,.54,1.57,15.42,15.42,0,0,1,.4,3.22,24.11,24.11,0,0,1-.69,6.35c0-1.06.09-2.11.07-3.17a27.33,27.33,0,0,0-.15-3.13,12,12,0,0,0-1.81-5.76,7.85,7.85,0,0,1-1-3.19,15.36,15.36,0,0,1,0-3.25A24.45,24.45,0,0,1,245.75,338.9Z" style="fill:#439A97"></path><path d="M254.48,366.42a3.17,3.17,0,0,0-1.13,1.17,10.59,10.59,0,0,0-.73,1.47,25.25,25.25,0,0,0-1.05,3.11q-.87,3.18-1.53,6.44c-.46,2.16-.86,4.34-1.27,6.51-.21,1.09-.4,2.18-.58,3.28s-.38,2.18-.53,3.29A43.79,43.79,0,0,1,248,385c.24-2.22.6-4.42,1.05-6.61a48.68,48.68,0,0,1,1.78-6.46,23.63,23.63,0,0,1,1.35-3.1,10.14,10.14,0,0,1,.95-1.4A2.93,2.93,0,0,1,254.48,366.42Z" style="fill:#439A97"></path><path d="M260.55,367.37a18.61,18.61,0,0,1,1.79,6,19.45,19.45,0,0,1-.24,6.32,10.22,10.22,0,0,1-.39,1.54c-.16.5-.29,1-.49,1.51a19.87,19.87,0,0,1-3.3,5.38,11.53,11.53,0,0,1-1.1,1.11c-.38.36-.76.72-1.15,1.06a28.83,28.83,0,0,0,3.43-5.1,20.09,20.09,0,0,0,2-5.7,23.08,23.08,0,0,0,.44-6.05A28,28,0,0,0,260.55,367.37Z" style="fill:#439A97"></path><path d="M227.36,351.27a4.2,4.2,0,0,1-1.78.29,5.16,5.16,0,0,1-1.8-.4,4.28,4.28,0,0,1-1.52-1.08,3.28,3.28,0,0,1-.78-1.66,11.14,11.14,0,0,0,1.31,1.08,8,8,0,0,0,1.39.74A25.83,25.83,0,0,0,227.36,351.27Z" style="fill:#439A97"></path><path d="M228.69,346.77,227.1,346a11.08,11.08,0,0,0-1.53-.58,5.58,5.58,0,0,0-1.52-.21,6.24,6.24,0,0,0-1.64.36,2.74,2.74,0,0,1,1.5-1.13,3.75,3.75,0,0,1,1.94,0,4.82,4.82,0,0,1,1.66.88A4.31,4.31,0,0,1,228.69,346.77Z" style="fill:#439A97"></path><path d="M267.59,372.72a8.08,8.08,0,0,1,1.43-2.09,8.62,8.62,0,0,1,2-1.62,4.57,4.57,0,0,1,2.58-.69,3,3,0,0,1,2.29,1.21,4,4,0,0,0-2.27-.43,5.31,5.31,0,0,0-2.11.78A35.35,35.35,0,0,0,267.59,372.72Z" style="fill:#439A97"></path><path d="M267.59,377.26a48.41,48.41,0,0,0,5.75-.43A8.14,8.14,0,0,0,276,376a4.08,4.08,0,0,0,1.83-2,3.35,3.35,0,0,1-1.4,2.67,6.35,6.35,0,0,1-2.87,1.16,12.16,12.16,0,0,1-3,.1A11.07,11.07,0,0,1,267.59,377.26Z" style="fill:#439A97"></path></g><g id="freepik--table-2--inject-35"><rect x="295.02" y="180.54" width="68.41" height="95.6" style="fill:#439A97"></rect><polygon points="409.84 276.14 363.43 276.14 363.43 180.54 409.84 197.22 409.84 276.14" style="fill:#439A97"></polygon><polygon points="409.84 276.14 363.43 276.14 363.43 180.54 409.84 197.22 409.84 276.14" style="fill:#fff;opacity:0.2;isolation:isolate"></polygon><rect x="295.02" y="263.27" width="114.82" height="12.87" style="fill:#263238"></rect><rect x="295.02" y="263.27" width="114.82" height="12.87" style="fill:#fff;opacity:0.30000000000000004;isolation:isolate"></rect><polygon points="361.07 248.38 374.28 232.96 396.6 252.12 377.27 266.82 349.38 266.46 335.59 244.58 361.07 248.38" style="fill:#439A97"></polygon><polygon points="361.07 248.38 377.27 266.82 349.38 266.46 335.59 244.58 361.07 248.38" style="fill:#fff;isolation:isolate"></polygon><polygon points="361.07 248.38 374.28 232.96 396.6 252.12 377.27 266.82 361.07 248.38" style="fill:#fff;opacity:0.8;isolation:isolate"></polygon><polygon points="341.43 276.14 295.02 276.14 295.02 180.54 341.43 197.22 341.43 276.14" style="fill:#439A97"></polygon><polygon points="341.43 276.14 295.02 276.14 295.02 180.54 341.43 197.22 341.43 276.14" style="fill:#fff;opacity:0.6000000000000001;isolation:isolate"></polygon><polygon points="315.05 199.54 335.17 243.3 298.51 253.93 315.05 199.54" style="fill:#fff;opacity:0.5;isolation:isolate"></polygon><path d="M305,225.08l1.13-.74,1.12,7,3.19-2.07.21,1.3-4.32,2.81Z" style="fill:#439A97"></path><path d="M315.32,224.55l-3.65,2.37c.28.84.94,1.07,1.75.54a2.94,2.94,0,0,0,1.16-1.51l.73.54a4.23,4.23,0,0,1-1.71,2.24c-1.56,1-2.79.31-3.09-1.57a5,5,0,0,1,1.88-4.8c1.36-.88,2.56-.23,2.88,1.74C315.29,224.22,315.31,224.41,315.32,224.55Zm-3.81,1.4,2.64-1.72c-.24-.85-.85-1.15-1.57-.68A2.72,2.72,0,0,0,311.51,226Z" style="fill:#439A97"></path><path d="M319.56,224.39a2.85,2.85,0,0,1-1,1.11c-1,.66-1.72.3-1.94-1.09l-.49-3-.77.5-.19-1.18.77-.5-.23-1.45,1.09-.7.23,1.44,1.24-.81.19,1.18-1.24.81.48,3c.1.62.38.8.8.53a1.69,1.69,0,0,0,.57-.66Z" style="fill:#439A97"></path><path d="M320.31,215.56a4.09,4.09,0,0,1,0,1.14l-.18,2-.71.46.06-2c-.27,0-.48-.17-.55-.61a1.45,1.45,0,0,1,.55-1.43C319.86,214.78,320.22,215,320.31,215.56Z" style="fill:#439A97"></path><path d="M321.86,222.58l.24-1.39a2.47,2.47,0,0,0,1.72-.43c.69-.45.93-.89.86-1.33-.19-1.21-2.89,1.8-3.29-.73a3.47,3.47,0,0,1,1.73-3.31,3.09,3.09,0,0,1,1.83-.58l-.24,1.39a2.11,2.11,0,0,0-1.41.4c-.66.43-.92.93-.86,1.34.21,1.28,2.9-1.73,3.3.75a3.48,3.48,0,0,1-1.8,3.32A2.9,2.9,0,0,1,321.86,222.58Z" style="fill:#439A97"></path><path d="M309.4,236.5l-1.65,12.44-1.38.9-5-8.15,1.52-1,3.8,6.31,1.26-9.59Z" style="fill:#439A97"></path><path d="M310.41,241.53a8.25,8.25,0,0,1,3.22-7.94c2.35-1.53,4.44-.41,4.93,2.64a8.25,8.25,0,0,1-3.23,8C313,245.7,310.9,244.57,310.41,241.53Zm6.73-4.38c-.33-2.1-1.71-2.88-3.24-1.89a5.55,5.55,0,0,0-2.08,5.35c.34,2.1,1.72,2.88,3.24,1.89A5.5,5.5,0,0,0,317.14,237.15Z" style="fill:#439A97"></path><path d="M320.91,230.81l-2.51,1.63-.25-1.62,6.42-4.17.26,1.62-2.51,1.63,1.39,8.67-1.4.91Z" style="fill:#439A97"></path><path d="M332.7,231l.26,1.6-5.68,3.69L325.63,226l5.52-3.59.26,1.6-4.12,2.68.43,2.68,3.65-2.38.26,1.57L328,230.9l.46,2.84Z" style="fill:#439A97"></path><polygon points="411.7 273.92 411.7 417.67 407.07 417.67 407.07 278.65 365.7 278.65 365.7 417.67 361.07 417.67 361.07 278.65 343.7 278.65 343.7 417.67 339.07 417.67 339.07 278.65 297.23 278.65 297.23 417.67 292.59 417.67 292.59 273.92 411.7 273.92" style="fill:#263238"></polygon><polygon points="341.43 273.92 341.43 417.67 339.07 417.67 339.07 278.65 295.02 278.65 295.02 417.67 292.59 417.67 292.59 273.92 341.43 273.92" style="fill:#fff;opacity:0.30000000000000004;isolation:isolate"></polygon><rect x="361.07" y="278.65" width="2.36" height="139.02" style="fill:#fff;opacity:0.30000000000000004;isolation:isolate"></rect><rect x="407.03" y="278.65" width="2.36" height="139.02" style="fill:#fff;opacity:0.30000000000000004;isolation:isolate"></rect></g><g id="freepik--table-1--inject-35"><rect x="140.86" y="180.54" width="68.41" height="95.6" transform="translate(350.14 456.68) rotate(180)" style="fill:#439A97"></rect><polygon points="94.45 276.14 140.86 276.14 140.86 180.54 94.45 197.22 94.45 276.14" style="fill:#439A97"></polygon><polygon points="94.45 276.14 140.86 276.14 140.86 180.54 94.45 197.22 94.45 276.14" style="fill:#fff;opacity:0.2;isolation:isolate"></polygon><rect x="94.45" y="263.27" width="114.82" height="12.87" transform="translate(303.72 539.42) rotate(180)" style="fill:#263238"></rect><rect x="94.45" y="263.27" width="114.82" height="12.87" transform="translate(303.72 539.42) rotate(180)" style="fill:#fff;opacity:0.30000000000000004;isolation:isolate"></rect><polygon points="140.66 251.8 167.87 258.7 150.51 271.2 123.2 263.87 140.66 251.8" style="fill:#439A97"></polygon><polygon points="140.66 251.8 167.87 258.7 150.51 271.2 123.2 263.87 140.66 251.8" style="fill:#fff;opacity:0.8;isolation:isolate"></polygon><polygon points="123.2 263.87 140.66 251.8 166.79 247.63 145.74 262.3 123.2 263.87" style="fill:#fff;isolation:isolate"></polygon><polygon points="162.86 276.14 209.27 276.14 209.27 180.54 162.86 197.22 162.86 276.14" style="fill:#439A97"></polygon><polygon points="162.86 276.14 209.27 276.14 209.27 180.54 162.86 197.22 162.86 276.14" style="fill:#fff;opacity:0.6000000000000001;isolation:isolate"></polygon><polygon points="189.24 199.54 169.12 243.3 205.78 253.93 189.24 199.54" style="fill:#fff;opacity:0.5;isolation:isolate"></polygon><path d="M175.09,225.08l1.13-.74,1.12,7,3.19-2.07.21,1.3-4.32,2.81Z" style="fill:#439A97"></path><path d="M185.42,224.55l-3.65,2.37c.28.84.94,1.07,1.75.54a3,3,0,0,0,1.15-1.51l.73.54a4.23,4.23,0,0,1-1.71,2.24c-1.56,1-2.79.31-3.09-1.57a5,5,0,0,1,1.89-4.8c1.36-.88,2.56-.23,2.87,1.74C185.38,224.22,185.4,224.41,185.42,224.55ZM181.6,226l2.64-1.72c-.23-.85-.85-1.15-1.56-.68A2.72,2.72,0,0,0,181.6,226Z" style="fill:#439A97"></path><path d="M189.65,224.39a2.83,2.83,0,0,1-1,1.11c-1,.66-1.72.3-2-1.09l-.49-3-.76.5-.19-1.18.76-.5-.23-1.45,1.09-.7.23,1.44,1.25-.81.19,1.18-1.25.81.48,3c.1.62.38.8.8.53a1.62,1.62,0,0,0,.57-.66Z" style="fill:#439A97"></path><path d="M190.4,215.56a3.72,3.72,0,0,1,0,1.14l-.18,2-.71.46.06-2c-.26,0-.48-.17-.55-.61a1.47,1.47,0,0,1,.55-1.43C190,214.78,190.31,215,190.4,215.56Z" style="fill:#439A97"></path><path d="M192,222.58l.24-1.39a2.45,2.45,0,0,0,1.72-.43c.69-.45.94-.89.86-1.33-.19-1.21-2.88,1.8-3.29-.73a3.47,3.47,0,0,1,1.73-3.31,3.09,3.09,0,0,1,1.83-.58l-.23,1.39a2.08,2.08,0,0,0-1.41.4c-.67.43-.93.93-.86,1.34.2,1.28,2.89-1.73,3.29.75A3.48,3.48,0,0,1,194,222,2.9,2.9,0,0,1,192,222.58Z" style="fill:#439A97"></path><path d="M179.49,236.5l-1.64,12.44-1.39.9-5-8.15,1.53-1,3.79,6.31,1.27-9.59Z" style="fill:#439A97"></path><path d="M180.5,241.53a8.24,8.24,0,0,1,3.23-7.94c2.34-1.53,4.43-.41,4.92,2.64a8.24,8.24,0,0,1-3.22,8C183.08,245.7,181,244.57,180.5,241.53Zm6.74-4.38c-.34-2.1-1.72-2.88-3.24-1.89a5.51,5.51,0,0,0-2.08,5.35c.34,2.1,1.71,2.88,3.24,1.89A5.52,5.52,0,0,0,187.24,237.15Z" style="fill:#439A97"></path><path d="M191,230.81l-2.51,1.63-.26-1.62,6.42-4.17.26,1.62-2.51,1.63,1.39,8.67-1.4.91Z" style="fill:#439A97"></path><path d="M202.79,231l.26,1.6-5.68,3.69L195.72,226l5.53-3.59.25,1.6-4.12,2.68.43,2.68,3.66-2.38.25,1.57-3.65,2.38.45,2.84Z" style="fill:#439A97"></path><polygon points="92.59 273.92 92.59 417.67 97.22 417.67 97.22 278.65 138.59 278.65 138.59 417.67 143.22 417.67 143.22 278.65 160.59 278.65 160.59 417.67 165.22 417.67 165.22 278.65 207.06 278.65 207.06 417.67 211.7 417.67 211.7 273.92 92.59 273.92" style="fill:#263238"></polygon><polygon points="162.86 273.92 162.86 417.67 165.22 417.67 165.22 278.65 209.27 278.65 209.27 417.67 211.7 417.67 211.7 273.92 162.86 273.92" style="fill:#fff;opacity:0.30000000000000004;isolation:isolate"></polygon><rect x="140.86" y="278.65" width="2.36" height="139.02" style="fill:#fff;opacity:0.30000000000000004;isolation:isolate"></rect><rect x="94.91" y="278.65" width="2.36" height="139.02" style="fill:#fff;opacity:0.30000000000000004;isolation:isolate"></rect></g><g id="freepik--character-2--inject-35"><path d="M401.29,311.25l-1.32,4L398.39,320l-2.79,8.4-.49,1.52-2.89,8.7-4.89,14.83c-.68,22.68-13.1,53.37-13.1,53.37l-4.42-1.2c1.62-22.24,6-49.08,9.69-69.2.58-3.16,1.14-6.14,1.68-8.92l.75-3.81q.58-3,1.1-5.54c.69-3.44,1.27-6.23,1.69-8.2.45-2.15.71-3.33.71-3.33Z" style="fill:#e4897b"></path><path d="M423.92,307l-1,6.83-1.35,9-.15,1-.29,2-1,6.83L417.34,351c3.19,22.46-3.82,54.82-3.82,54.82l-4.56-.43c-2.38-24.12-2.47-54.16-2.14-75,.05-3.23.11-6.26.17-9a2.09,2.09,0,0,1,0-.25v-.15c.13-5.43.28-9.75.38-12.48.09-2.15.13-3.32.13-3.32Z" style="fill:#e4897b"></path><path d="M385.43,306.65l15.86,4.6-1.32,4L398.39,320,383,318.18c.69-3.44,1.27-6.23,1.69-8.2C385.17,307.83,385.43,306.65,385.43,306.65Z" style="opacity:0.2;isolation:isolate"></path><path d="M423.92,307l-1,6.83-1.35,9L407,321.07v-.15c.13-5.43.28-9.75.38-12.48.09-2.15.13-3.32.13-3.32Z" style="opacity:0.2;isolation:isolate"></path><path d="M402.86,237.49s-6.4,9.19-8.83,10.79-19.75.31-19.75.31l-.88,3.78s17.78,3.25,21.52,1.25S408,241.27,408,241.27Z" style="fill:#e4897b"></path><path d="M402.86,237.49s-6.4,9.19-8.83,10.79-19.75.31-19.75.31l-.88,3.78s17.78,3.25,21.52,1.25S408,241.27,408,241.27Z" style="opacity:0.2;isolation:isolate"></path><path d="M379,248.06l.59,6.21s22.54,2.78,25,1.45,4.51-13.55,4.51-13.55L399,241.29s-8.19,6.05-9.11,6.77S379,248.06,379,248.06Z" style="fill:#263238"></path><path d="M379,248.06l.59,6.21s22.54,2.78,25,1.45,4.51-13.55,4.51-13.55L399,241.29s-8.19,6.05-9.11,6.77S379,248.06,379,248.06Z" style="fill:#fff;opacity:0.30000000000000004;isolation:isolate"></path><path d="M374.28,248.59a14,14,0,0,0-3.41-2.72,13.37,13.37,0,0,0-4.41-1l-.72,4.89a23,23,0,0,0,3.57,2.31,12.12,12.12,0,0,0,4.09.29Z" style="fill:#e4897b"></path><path d="M374.28,248.59a14,14,0,0,0-3.41-2.72,13.37,13.37,0,0,0-4.41-1l-.72,4.89a23,23,0,0,0,3.57,2.31,12.12,12.12,0,0,0,4.09.29Z" style="opacity:0.2;isolation:isolate"></path><path d="M381,215.39a.23.23,0,0,1-.18-.08,2.93,2.93,0,0,0-2.47-.63.25.25,0,0,1-.3-.19.26.26,0,0,1,.2-.3,3.42,3.42,0,0,1,2.93.77.26.26,0,0,1,0,.36A.28.28,0,0,1,381,215.39Z" style="fill:#263238"></path><path d="M379.76,218.32a12.91,12.91,0,0,1-1.55,2.65,1.66,1.66,0,0,0,1.65.55Z" style="fill:#de5753"></path><path d="M378.58,216.75c0,.49.32.88.65.86s.58-.44.55-.94-.32-.88-.66-.86S378.55,216.25,378.58,216.75Z" style="fill:#263238"></path><path d="M379.26,215.82l-1.1-.36S378.75,216.34,379.26,215.82Z" style="fill:#263238"></path><path d="M393.39,226a1,1,0,0,1-.18.17,9,9,0,0,1-2.93,2c-3.22,1.23-5.55,1.09-7.24-.21h0c-2.39-2-3.46-5.9-3.83-10.76a18.27,18.27,0,0,1,.28-5.78v-.09a1.66,1.66,0,0,1,.06-.21,6.64,6.64,0,0,1,4.28-4.69,13.39,13.39,0,0,1,2.81-.71C396,204.31,399.86,219.66,393.39,226Z" style="fill:#e4897b"></path><path d="M393.21,226.19a8.78,8.78,0,0,1-2.95,1.84c-3.22,1.23-5.57,1-7.26-.35a9.44,9.44,0,0,0,5.9-1.31A4.94,4.94,0,0,1,393.21,226.19Z" style="opacity:0.2;isolation:isolate"></path><path d="M390,202.76s-6.51-.73-9.64,2.28c-3.65,3.51-4.77,6.78.69,10.86,0,0,10.09-4.88,13.71-4.63a38.75,38.75,0,0,1,6.26.91C400.78,205.11,393.3,200.85,390,202.76Z" style="fill:#263238"></path><path d="M388.63,228.54a4.18,4.18,0,0,1,1.74,6.18L404,230.91s-6.44-2.81-7-7.34C397,223.57,389.86,223,388.63,228.54Z" style="fill:#e4897b"></path><path d="M379.47,211.35a10,10,0,0,0,7,8.63s3.62,6.48,7.59,6c5.4-.61,9.09-8.93,6.15-16.48C396.43,199.75,381,201,379.47,211.35Z" style="fill:#263238"></path><path d="M383.07,218.53c-.14-1,.45-2.87,2.08-2.86s3.17,4-.77,5.44C383.81,221.32,383.36,220.67,383.07,218.53Z" style="fill:#e4897b"></path><path d="M423.28,263.64s9.84,23,.64,56.32l-42.28-3.78c5.52-27.05,13-41.83,13-41.83L396,260.74Z" style="fill:#439A97"></path><path d="M389.81,231.77A12.93,12.93,0,0,1,399.92,226l3.47,3.67Z" style="fill:#439A97"></path><path d="M417.2,268.86l-15.12,1.58V267l14.68-1.45C416.87,266.39,417.05,267.76,417.2,268.86Z" style="fill:#263238"></path><polygon points="400.9 267.12 400.9 270.56 394.64 271.21 394.64 267.74 400.9 267.12" style="fill:#263238"></polygon><polygon points="417.96 265.43 424.31 264.8 425.11 268.03 418.55 268.71 417.96 265.43" style="fill:#263238"></polygon><path d="M353.61,261.18a14.15,14.15,0,0,0-3.92-1.92,13.39,13.39,0,0,0-4.53,0l.36,4.93a24.16,24.16,0,0,0,4,1.49,12.25,12.25,0,0,0,4.06-.61Z" style="fill:#e4897b"></path><path d="M423.28,263.64l-27.88,3.12-13.86-31.23s9.65-8.32,27.52-5.63C409.06,229.9,415.46,232.75,423.28,263.64Z" style="fill:#263238"></path><path d="M423.27,263.64l-27.87,3.12-6.59-14.84-2.8-6.29-4.47-10.1s9.64-8.31,27.52-5.63C409.06,229.9,415.45,232.75,423.27,263.64Z" style="fill:#fff;opacity:0.5;isolation:isolate"></path><path d="M388.81,251.92l-2.8-6.29a5.23,5.23,0,0,1,1.06-1.47A8.06,8.06,0,0,1,388.81,251.92Z" style="opacity:0.2;isolation:isolate"></path><path d="M379.1,244.16s-4.25,10.36-6.28,12.44-19.21,4.58-19.21,4.58l-.05,3.88s18.07-.67,21.29-3.43S385,246.73,385,246.73Z" style="fill:#e4897b"></path><path d="M381.54,235.53c-2.39,2.17-8,20.61-8.72,21.07s-16,4.08-16,4.08,1.73,5.32,1.72,5,15.42-1.19,17.29-1.9,12-16.79,12-16.79a35.76,35.76,0,0,0-2.88-8C383.2,235.89,381.54,235.53,381.54,235.53Z" style="fill:#263238"></path><path d="M381.54,235.53c-2.39,2.17-8,20.61-8.72,21.07s-16,4.08-16,4.08,1.73,5.32,1.72,5,15.42-1.19,17.29-1.9,12-16.79,12-16.79a35.76,35.76,0,0,0-2.88-8C383.2,235.89,381.54,235.53,381.54,235.53Z" style="fill:#fff;opacity:0.5;isolation:isolate"></path><polygon points="355.94 260.74 357.34 259.88 359.49 266.08 357.34 266.08 355.94 260.74" style="fill:#439A97"></polygon><path d="M362.61,416.3a8.13,8.13,0,0,1,2.62-1.42h0s2.85-2.83,4.22-11.34l3.73-1a3.17,3.17,0,0,1,3.39,1.32,2.23,2.23,0,0,1,.24.49,21.72,21.72,0,0,1,.39,2.77,76.21,76.21,0,0,1,.06,9.34h-.68l-.26-5.86c-.1-2-1.63.34-2.06,2.48s-1.37,4.43-5.73,4.54C363.43,417.75,361.32,417.55,362.61,416.3Z" style="fill:#263238"></path><path d="M376.7,404a30.31,30.31,0,0,1,1-4.52h-9s1,3.93.18,6.89C373.08,405.23,376.7,404,376.7,404Z" style="fill:#263238"></path><path d="M401,416.3a8.13,8.13,0,0,1,2.62-1.42h0s2.85-2.83,4.22-11.34l3.73-1a3.17,3.17,0,0,1,3.39,1.32,2.23,2.23,0,0,1,.24.49,23.69,23.69,0,0,1,.4,2.77,77.69,77.69,0,0,1,.05,9.34H415l-.26-5.86c-.1-2-1.63.34-2.06,2.48s-1.37,4.43-5.73,4.54C401.87,417.75,399.75,417.55,401,416.3Z" style="fill:#263238"></path><path d="M415.13,404a30.31,30.31,0,0,1,1-4.52h-9s1,3.93.17,6.89C411.52,405.23,415.13,404,415.13,404Z" style="fill:#263238"></path><path d="M391.78,203.5s3.17-8.95,11.61-5.39,1.89,12.77,4.63,17.79-1.13,9.64-3.28,8.33a2,2,0,0,0,1.68-2.66c-.66-2.36-4.44-1.58-6-8.43s-4.09-4-4.09-4Z" style="fill:#263238"></path></g><g id="freepik--character-1--inject-35"><g id="freepik--group--inject-35"><path d="M130.87,234.08c-2.34,3.19-18.9,0-18.9,0v-4.36l13.43-1.05Z" style="fill:#263238"></path><path d="M130.87,234.08c-2.34,3.19-18.9,0-18.9,0v-4.36l13.43-1.05Z" style="opacity:0.2"></path><path d="M83.29,210.67c-3.34,1.71,1.76,18.16,6.86,23.64s1.93-12.62,1.93-12.62Z" style="fill:#263238"></path><path d="M83.29,210.67c-3.34,1.71,1.76,18.16,6.86,23.64s1.93-12.62,1.93-12.62Z" style="opacity:0.2"></path><path d="M109.46,207.35l.06,4.92-3.76-.46v-4.46s-.41-.67-.86-1.51a13.74,13.74,0,0,1-1-2.18c-.46-1.41,4.31-5.56,4.31-5.56s.3.28.72.71c1,1,2.82,2.82,3,3.5C112.26,203.27,109.46,207.35,109.46,207.35Z" style="fill:#9f5b53"></path><path d="M109,198.81c-.52,2.15-1.71,5.59-4,7a13.74,13.74,0,0,1-1-2.18c-.46-1.41,4.31-5.56,4.31-5.56S108.53,198.38,109,198.81Z" style="opacity:0.2"></path><polygon points="118.37 411.32 125.28 412.05 125.63 408.04 126.58 397.14 119.66 396.4 118.61 408.45 118.37 411.32" style="fill:#9f5b53"></polygon><polygon points="83.86 410.44 90.56 410.44 90.62 408.93 90.63 408.74 90.97 399.02 90.98 398.82 91.11 395.1 84.41 395.1 83.86 410.44" style="fill:#9f5b53"></polygon><polygon points="119.66 396.4 118.61 408.45 125.63 408.04 126.58 397.14 119.66 396.4" style="opacity:0.2;isolation:isolate"></polygon><polygon points="83.9 409.59 83.91 409.59 90.62 408.74 90.63 408.74 90.98 399.36 90.97 399.36 84.25 399.9 83.91 409.3 83.9 409.59" style="opacity:0.2;isolation:isolate"></polygon><path d="M91.49,410H83.35a.58.58,0,0,0-.57.46l-1.32,6a1,1,0,0,0,.76,1.17.78.78,0,0,0,.22,0c2.63,0,4.55-.2,7.86-.2,2,0,8.18.21,11,.21s3.18-2.78,2-3c-5.16-1.13-9-2.69-10.7-4.17A1.63,1.63,0,0,0,91.49,410Z" style="fill:#263238"></path><path d="M126,409.83h-8.14a.59.59,0,0,0-.57.46l-1.32,6a1,1,0,0,0,.76,1.18l.22,0c2.64,0,4.55-.21,7.86-.21,2,0,8.18.22,11,.22s3.18-2.78,2-3c-5.17-1.12-9.06-2.68-10.71-4.17A1.62,1.62,0,0,0,126,409.83Z" style="fill:#263238"></path><path d="M127.21,407h-9.83s.8-84.61-9.83-113.18c-.75,9.44-1.59,19.25-2.42,27.41-.52,5.06-1,9.4-1.51,12.71-3.1,21.31-10.91,73.92-10.91,73.92H83s1.15-50.41,2.31-71.36c1.27-22.73,1.81-72.71,1.86-77h35.57C126.12,277.46,134.8,349.07,127.21,407Z" style="fill:#439A97"></path><path d="M127.21,407h-9.83s.8-84.61-9.83-113.18c-.75,9.44-1.59,19.25-2.42,27.41-.52,5.06-1,9.4-1.51,12.71-3.1,21.31-10.91,73.92-10.91,73.92H83s1.15-50.41,2.31-71.36c1.27-22.73,1.81-72.71,1.86-77h35.57C126.12,277.46,134.8,349.07,127.21,407Z" style="fill:#fff;opacity:0.7000000000000001;isolation:isolate"></path><path d="M107.55,293.81c-.75,9.45-1.59,19.27-2.42,27.43-1.21-11.79-2.69-20.19-2.69-20.19s-1.39-1.14-5.21-7.24,0-17.47,0-17.47C97.11,286.91,107.55,293.81,107.55,293.81Z" style="opacity:0.2;isolation:isolate"></path><polygon points="128.31 404.26 127.83 407.03 116.22 407.03 116.22 404.48 128.31 404.26" style="fill:#439A97"></polygon><polygon points="93.83 405.33 92.71 407.89 82.97 407.89 82.33 405.33 93.83 405.33" style="fill:#439A97"></polygon><polygon points="86.96 256.81 86.96 260 122.82 260 122.4 256.36 86.96 256.81"></polygon><rect x="97.92" y="255.79" width="1.08" height="5.04" style="fill:#439A97"></rect><rect x="115.86" y="255.79" width="1.08" height="5.04" transform="translate(-16.91 8.31) rotate(-3.81)" style="fill:#439A97"></rect><rect x="97.92" y="255.79" width="1.08" height="5.04" style="fill:#fff;opacity:0.7000000000000001;isolation:isolate"></rect><rect x="115.86" y="255.79" width="1.08" height="5.04" transform="translate(-16.91 8.31) rotate(-3.81)" style="fill:#fff;opacity:0.7000000000000001;isolation:isolate"></rect><path d="M110.7,189.74c0,.53-.21,1-.57,1s-.67-.39-.72-.92.22-1,.57-1S110.66,189.21,110.7,189.74Z" style="fill:#2e353a"></path><path d="M108,188.15a.27.27,0,0,1-.15-.05.24.24,0,0,1,0-.35,3.62,3.62,0,0,1,3-1.24.25.25,0,0,1,.23.27.25.25,0,0,1-.27.23,3.14,3.14,0,0,0-2.54,1A.28.28,0,0,1,108,188.15Z" style="fill:#2e353a"></path><path d="M109.41,190.76A17.74,17.74,0,0,0,112,194a2.26,2.26,0,0,1-2.12,1.05Z" style="fill:#a24e3f"></path><path d="M109.82,197.28a7,7,0,0,1-.29.95,9.25,9.25,0,0,1-3.31,4.42,9.5,9.5,0,0,1-1.22.75,8.46,8.46,0,0,1-7.26.32A8.71,8.71,0,0,1,95,201.8c-3.35-3.39-3.27-7.3-3.64-13.93A9,9,0,0,1,92,183.7a9.09,9.09,0,0,1,11.87-4.9C110.37,181.45,111.26,191.32,109.82,197.28Z" style="fill:#9f5b53"></path><path d="M106.22,202.65a9.5,9.5,0,0,1-1.22.75,8.46,8.46,0,0,1-7.26.32,10,10,0,0,1,1.19-2.25A13.08,13.08,0,0,1,106.22,202.65Z" style="opacity:0.2;isolation:isolate"></path><path d="M92.88,211.24c3.26,3,11.26,1.87,11.26,1.87s5-1.36,4-2.92c-2.94-.49-4.37-1.86-5-3.62a8.45,8.45,0,0,1-.29-3.36,17.08,17.08,0,0,1,.24-1.87L93.2,194C94.49,198.85,96.08,207.74,92.88,211.24Z" style="fill:#9f5b53"></path><path d="M102,175.94s1.75-1.07,4.75,1.75c2.52,2.38,0,4.29,1.5,7.34s-.53,6.05-.53,6.05-1.45,3.13-4,2.94c0,0-2.07,2.5-1.74,5.08s-3.38,4.63-8.44,4.56-3-3.22-3-3.22A20.8,20.8,0,0,1,87,194.77a19.61,19.61,0,0,1-1.44-7.92,10.62,10.62,0,0,1,2.92-7.67C91.86,175.38,99.9,173.47,102,175.94Z" style="fill:#263238"></path><path d="M102.45,192.57a4.31,4.31,0,0,0,2.21,3c1.35.57,2.23-1.33,2-3.32-.19-1.77-1.1-4.26-2.55-3.93S102,190.79,102.45,192.57Z" style="fill:#9f5b53"></path><path d="M92.08,210.62l1.46-3.77s9.85-1.9,13.19,3S92.08,210.62,92.08,210.62Z" style="fill:#439A97"></path><path d="M92.08,210.62l1.46-3.77s9.85-1.9,13.19,3S92.08,210.62,92.08,210.62Z" style="fill:#fff;opacity:0.6000000000000001"></path><path d="M86.29,257.43s1.38-12.34-.66-31.1c-.53-4.83-1.28-10.08-2.33-15.66,0,0,19.33-3.41,32.82,0,0,0,.56,2.28,1.31,6.17.13.63.26,1.29.4,2,.36,1.93.75,4.16,1.15,6.61h0l.06.38c.43,2.64,1,5.67,1.55,8.95A153.74,153.74,0,0,1,123.19,257Z" style="fill:#263238"></path><path d="M120.6,234.79c-6.37-5.91-5.66-18-5.66-18l2.89,2c.36,1.93.75,4.16,1.15,6.61h0l.06.38C119.48,228.48,120,231.51,120.6,234.79Z" style="opacity:0.2"></path><path d="M116.12,210.67c5,2.1,15.24,17.77,15.42,21s-2.25,4.47-6.84,1.66-9.06-13-9.7-16.06S116.12,210.67,116.12,210.67Z" style="fill:#263238"></path></g></g></svg>